<svg id="screenshot" viewBox="441.66666666666674 177.847899136 256 256" width="256" height="256" version="1.1" xmlns="http://www.w3.org/2000/svg" xmlns:xlink="http://www.w3.org/1999/xlink" style="-webkit-print-color-adjust: exact;"><g id="shape-986b8940-8c1c-11ec-89cc-eb5165ea74c9"><g clip-path="url(#267ab940-8c1d-11ec-a0d2-9555b1f9e625-a9265f80-8c1c-11ec-89cc-eb5165ea74c9-clip)"><g mask="url(#267ab940-8c1d-11ec-a0d2-9555b1f9e625-a9265f80-8c1c-11ec-89cc-eb5165ea74c9-mask)"><defs><filter id="267ab940-8c1d-11ec-a0d2-9555b1f9e625-a9265f80-8c1c-11ec-89cc-eb5165ea74c9-filter"><feFlood flood-color="white" result="FloodResult"/><feComposite in="FloodResult" in2="SourceGraphic" operator="in" result="comp"/></filter><clipPath id="267ab940-8c1d-11ec-a0d2-9555b1f9e625-a9265f80-8c1c-11ec-89cc-eb5165ea74c9-clip" class="mask-clip-path"><polyline points="441.66666666666674,177.847899136 697.6666666666667,177.847899136 697.6666666666667,433.847899136 441.66666666666674,433.847899136"/></clipPath><mask id="267ab940-8c1d-11ec-a0d2-9555b1f9e625-a9265f80-8c1c-11ec-89cc-eb5165ea74c9-mask" class="mask-shape"><g filter="url(#267ab940-8c1d-11ec-a0d2-9555b1f9e625-a9265f80-8c1c-11ec-89cc-eb5165ea74c9-filter)"><g id="shape-a9265f80-8c1c-11ec-89cc-eb5165ea74c9"><ellipse cx="569.6666666666667" cy="305.847899136" rx="128" ry="128" transform="matrix(1,0,0,1,0,0)" style="fill: rgb(177, 178, 181); fill-opacity: 1;"/></g></g></mask></defs><g id="shape-d05f4440-8c1c-11ec-89cc-eb5165ea74c9"><g id="shape-986bb050-8c1c-11ec-89cc-eb5165ea74c9"><g id="shape-986c2580-8c1c-11ec-89cc-eb5165ea74c9"><rect x="328.66666666666674" y="415" transform="matrix(1,0,0,1,0,0)" width="493" height="21" style="fill-rule: evenodd; fill: rgb(191, 10, 48);"/></g><g id="shape-986c4c90-8c1c-11ec-89cc-eb5165ea74c9"><rect x="328.66666666666674" y="394" transform="matrix(1,0,0,1,0,0)" width="493" height="21" style="fill-rule: evenodd; fill: rgb(255, 255, 255);"/></g><g id="shape-986c73a0-8c1c-11ec-89cc-eb5165ea74c9"><rect x="328.66666666666674" y="373" transform="matrix(1,0,0,1,0,0)" width="493" height="21" style="fill-rule: evenodd; fill: rgb(191, 10, 48);"/></g><g id="shape-986c73a1-8c1c-11ec-89cc-eb5165ea74c9"><rect x="328.66666666666674" y="353" transform="matrix(1,0,0,1,0,0)" width="493" height="21" style="fill-rule: evenodd; fill: rgb(255, 255, 255);"/></g><g id="shape-986c9ab0-8c1c-11ec-89cc-eb5165ea74c9"><rect x="328.66666666666674" y="333" transform="matrix(1,0,0,1,0,0)" width="493" height="20" style="fill-rule: evenodd; fill: rgb(191, 10, 48);"/></g><g id="shape-986c9ab1-8c1c-11ec-89cc-eb5165ea74c9"><rect x="328.66666666666674" y="314" transform="matrix(1,0,0,1,0,0)" width="493" height="20" style="fill-rule: evenodd; fill: rgb(255, 255, 255);"/></g><g id="shape-986cc1c0-8c1c-11ec-89cc-eb5165ea74c9"><rect x="328.66666666666674" y="294" transform="matrix(1,0,0,1,0,0)" width="493" height="20" style="fill-rule: evenodd; fill: rgb(191, 10, 48);"/></g><g id="shape-986ce8d0-8c1c-11ec-89cc-eb5165ea74c9"><rect x="328.66666666666674" y="275" transform="matrix(1,0,0,1,0,0)" width="493" height="20" style="fill-rule: evenodd; fill: rgb(255, 255, 255);"/></g><g id="shape-986ce8d1-8c1c-11ec-89cc-eb5165ea74c9"><rect x="328.66666666666674" y="255" transform="matrix(1,0,0,1,0,0)" width="493" height="20" style="fill-rule: evenodd; fill: rgb(191, 10, 48);"/></g><g id="shape-986d0fe0-8c1c-11ec-89cc-eb5165ea74c9"><rect x="328.66666666666674" y="235" transform="matrix(1,0,0,1,0,0)" width="493" height="20" style="fill-rule: evenodd; fill: rgb(255, 255, 255);"/></g><g id="shape-986d36f0-8c1c-11ec-89cc-eb5165ea74c9"><rect x="328.66666666666674" y="216" transform="matrix(1,0,0,1,0,0)" width="493" height="20" style="fill-rule: evenodd; fill: rgb(191, 10, 48);"/></g><g id="shape-986d5e00-8c1c-11ec-89cc-eb5165ea74c9"><rect x="328.66666666666674" y="196" transform="matrix(1,0,0,1,0,0)" width="493" height="20" style="fill-rule: evenodd; fill: rgb(255, 255, 255);"/></g><g id="shape-986d5e01-8c1c-11ec-89cc-eb5165ea74c9"><rect x="328.66666666666674" y="177" transform="matrix(1,0,0,1,0,0)" width="493" height="20" style="fill-rule: evenodd; fill: rgb(191, 10, 48);"/></g></g><g id="shape-986d8510-8c1c-11ec-89cc-eb5165ea74c9"><g id="shape-986d8511-8c1c-11ec-89cc-eb5165ea74c9"><rect x="328.66666666666674" y="177" transform="matrix(1,0,0,1,0,0)" width="198" height="137" style="fill-rule: evenodd; fill: rgb(0, 40, 104);"/></g></g><g id="shape-986dac20-8c1c-11ec-89cc-eb5165ea74c9"><g id="shape-986ebd90-8c1c-11ec-89cc-eb5165ea74c9"><path d="M337.2927897824145,297.4267358518432L343.0249957081047,296.8080862713053L345.2128605808077,291.22794566044007L347.5463153191258,296.7431089691143L353.29249448118776,297.19673904030213L349.0024774399791,301.2239751504051L350.36601121775084,307.08458407228557L345.3812272059845,304.0584474617413L340.4777203304078,307.22681184339496L341.68692221788535,301.32929013602086Z" style="fill-rule: evenodd; fill: rgb(255, 255, 255);"/></g><g id="shape-986f0bb0-8c1c-11ec-89cc-eb5165ea74c9"><path d="M369.8115882104289,297.4267358518432L375.5437941361191,296.8080862713053L377.73165900882213,291.22794566044007L380.06511374714023,296.7431089691143L385.81129290920217,297.19673904030213L381.5212758679935,301.2239751504051L382.88480964576513,307.08458407228557L377.9000256339991,304.0584474617413L372.9965187584222,307.22681184339496L374.20572064589976,301.32929013602086Z" style="fill-rule: evenodd; fill: rgb(255, 255, 255);"/></g><g id="shape-986f32c0-8c1c-11ec-89cc-eb5165ea74c9"><path d="M403.631138575564,297.4267358518432L409.36334450125423,296.8080862713053L411.55120937395714,291.22794566044007L413.88466411227523,296.7431089691143L419.63084327433717,297.19673904030213L415.3408262331286,301.2239751504051L416.70436001090013,307.08458407228557L411.7195759991339,304.0584474617413L406.8160691235572,307.22681184339496L408.02527101103476,301.32929013602086Z" style="fill-rule: evenodd; fill: rgb(255, 255, 255);"/></g><g id="shape-986f80e0-8c1c-11ec-89cc-eb5165ea74c9"><path d="M436.14993700357843,297.4267358518432L441.88214292926864,296.8080862713053L444.07000780197154,291.22794566044007L446.40346254028964,296.7431089691143L452.1496417023516,297.19673904030213L447.859624661143,301.2239751504051L449.22315843891465,307.08458407228557L444.2383744271485,304.0584474617413L439.3348675515716,307.22681184339496L440.5440694390493,301.32929013602086Z" style="fill-rule: evenodd; fill: rgb(255, 255, 255);"/></g><g id="shape-986fa7f0-8c1c-11ec-89cc-eb5165ea74c9"><path d="M468.66873543159284,297.4267358518432L474.40094135728305,296.8080862713053L476.58880622998595,291.22794566044007L478.92226096830404,296.7431089691143L484.668440130366,297.19673904030213L480.3784230891574,301.2239751504051L481.74195686692906,307.08458407228557L476.75717285516293,304.0584474617413L471.85366597958625,307.22681184339496L473.0628678670638,301.32929013602086Z" style="fill-rule: evenodd; fill: rgb(255, 255, 255);"/></g><g id="shape-986fcf00-8c1c-11ec-89cc-eb5165ea74c9"><path d="M502.48828579672784,297.4267358518432L508.22049172241805,296.8080862713053L510.40835659512106,291.22794566044007L512.7418113334392,296.7431089691143L518.487990495501,297.19673904030213L514.1979734542924,301.2239751504051L515.5615072320642,307.08458407228557L510.57672322029805,304.0584474617413L505.67321634472137,307.22681184339496L506.8824182321986,301.32929013602086Z" style="fill-rule: evenodd; fill: rgb(255, 255, 255);"/></g><g id="shape-986ff610-8c1c-11ec-89cc-eb5165ea74c9"><path d="M354.202564964982,284.4192164806375L359.9347708906722,283.8005669000995L362.1226357633751,278.2204262892343L364.4560905016932,283.7355895979086L370.20226966375515,284.18921966909636L365.9122526225465,288.21645577919935L367.2757864003181,294.0770647010798L362.2910023885521,291.05092809053554L357.3874955129754,294.2192924721892L358.59669740045285,288.3217707648151Z" style="fill-rule: evenodd; fill: rgb(255, 255, 255);"/></g><g id="shape-98704430-8c1c-11ec-89cc-eb5165ea74c9"><path d="M337.2927897824145,270.1109451723112L343.0249957081047,269.4922955917732L345.2128605808077,263.91215498090787L347.5463153191258,269.4273182895823L353.29249448118776,269.88094836077005L349.0024774399791,273.90818447087304L350.36601121775084,279.7687933927535L345.3812272059845,276.7426567822091L340.4777203304078,279.91102116386276L341.68692221788535,274.01349945648866Z" style="fill-rule: evenodd; fill: rgb(255, 255, 255);"/></g><g id="shape-98706b40-8c1c-11ec-89cc-eb5165ea74c9"><path d="M354.202564964982,257.10472655304244L359.9347708906722,256.4860769725045L362.1226357633751,250.90593636163925L364.4560905016932,256.42109967031354L370.20226966375515,256.87472974150137L365.9122526225465,260.90196585160436L367.2757864003181,266.7625747734848L362.2910023885521,263.7364381629404L357.3874955129754,266.90480254459413L358.59669740045285,261.0072808372201Z" style="fill-rule: evenodd; fill: rgb(255, 255, 255);"/></g><g id="shape-98709250-8c1c-11ec-89cc-eb5165ea74c9"><path d="M337.2927897824145,242.79645524471613L343.0249957081047,242.17780566417818L345.2128605808077,236.5976650533129L347.5463153191258,242.11282836198723L353.29249448118776,242.566458433175L349.0024774399791,246.59369454327805L350.36601121775084,252.45430346515838L345.3812272059845,249.42816685461406L340.4777203304078,252.59653123626782L341.68692221788535,246.6990095288937Z" style="fill-rule: evenodd; fill: rgb(255, 255, 255);"/></g><g id="shape-9870b960-8c1c-11ec-89cc-eb5165ea74c9"><path d="M354.202564964982,229.78893587351033L359.9347708906722,229.1702862929724L362.1226357633751,223.5901456821071L364.4560905016932,229.10530899078145L370.20226966375515,229.55893906196926L365.9122526225465,233.58617517207225L367.2757864003181,239.44678409395263L362.2910023885521,236.42064748340832L357.3874955129754,239.58901186506205L358.59669740045285,233.6914901576879Z" style="fill-rule: evenodd; fill: rgb(255, 255, 255);"/></g><g id="shape-9870e070-8c1c-11ec-89cc-eb5165ea74c9"><path d="M337.2927897824145,215.480664565184L343.0249957081047,214.86201498464607L345.2128605808077,209.28187437378074L347.5463153191258,214.7970376824551L353.29249448118776,215.2506677536429L349.0024774399791,219.2779038637459L350.36601121775084,225.13851278562626L345.3812272059845,222.11237617508195L340.4777203304078,225.2807405567357L341.68692221788535,219.38321884936158Z" style="fill-rule: evenodd; fill: rgb(255, 255, 255);"/></g><g id="shape-98712e90-8c1c-11ec-89cc-eb5165ea74c9"><path d="M354.202564964982,202.47314519397818L359.9347708906722,201.85449561344024L362.1226357633751,196.27435500257496L364.4560905016932,201.7895183112493L370.20226966375515,202.2431483824371L365.9122526225465,206.27038449254013L367.2757864003181,212.1309934144205L362.2910023885521,209.10485680387615L357.3874955129754,212.27322118552993L358.59669740045285,206.37569947815578Z" style="fill-rule: evenodd; fill: rgb(255, 255, 255);"/></g><g id="shape-987155a0-8c1c-11ec-89cc-eb5165ea74c9"><path d="M337.2927897824145,188.16487388565184L343.0249957081047,187.5462243051139L345.2128605808077,181.9660836942486L347.5463153191258,187.48124700292297L353.29249448118776,187.93487707411074L349.0024774399791,191.9621131842138L350.36601121775084,197.82272210609412L345.3812272059845,194.79658549554983L340.4777203304078,197.9649498772036L341.68692221788535,192.06742816982944Z" style="fill-rule: evenodd; fill: rgb(255, 255, 255);"/></g><g id="shape-98717cb0-8c1c-11ec-89cc-eb5165ea74c9"><path d="M386.7213633929964,284.4192164806375L392.45356931868685,283.8005669000995L394.6414341913895,278.2204262892343L396.9748889297076,283.7355895979086L402.72106809176955,284.18921966909636L398.431051050561,288.21645577919935L399.79458482833263,294.0770647010798L394.8098008165665,291.05092809053554L389.9062939409898,294.2192924721892L391.1154958284674,288.3217707648151Z" style="fill-rule: evenodd; fill: rgb(255, 255, 255);"/></g><g id="shape-9871a3c0-8c1c-11ec-89cc-eb5165ea74c9"><path d="M369.8115882104289,270.1109451723112L375.5437941361191,269.4922955917732L377.73165900882213,263.91215498090787L380.06511374714023,269.4273182895823L385.81129290920217,269.88094836077005L381.5212758679935,273.90818447087304L382.88480964576513,279.7687933927535L377.9000256339991,276.7426567822091L372.9965187584222,279.91102116386276L374.20572064589976,274.01349945648866Z" style="fill-rule: evenodd; fill: rgb(255, 255, 255);"/></g><g id="shape-9871cad0-8c1c-11ec-89cc-eb5165ea74c9"><path d="M386.7213633929964,257.10472655304244L392.45356931868685,256.4860769725045L394.6414341913895,250.90593636163925L396.9748889297076,256.42109967031354L402.72106809176955,256.87472974150137L398.431051050561,260.90196585160436L399.79458482833263,266.7625747734848L394.8098008165665,263.7364381629404L389.9062939409898,266.90480254459413L391.1154958284674,261.0072808372201Z" style="fill-rule: evenodd; fill: rgb(255, 255, 255);"/></g><g id="shape-987218f0-8c1c-11ec-89cc-eb5165ea74c9"><path d="M369.8115882104289,242.79645524471613L375.5437941361191,242.17780566417818L377.73165900882213,236.5976650533129L380.06511374714023,242.11282836198723L385.81129290920217,242.566458433175L381.5212758679935,246.59369454327805L382.88480964576513,252.45430346515838L377.9000256339991,249.42816685461406L372.9965187584222,252.59653123626782L374.20572064589976,246.6990095288937Z" style="fill-rule: evenodd; fill: rgb(255, 255, 255);"/></g><g id="shape-98724000-8c1c-11ec-89cc-eb5165ea74c9"><path d="M386.7213633929964,229.78893587351033L392.45356931868685,229.1702862929724L394.6414341913895,223.5901456821071L396.9748889297076,229.10530899078145L402.72106809176955,229.55893906196926L398.431051050561,233.58617517207225L399.79458482833263,239.44678409395263L394.8098008165665,236.42064748340832L389.9062939409898,239.58901186506205L391.1154958284674,233.6914901576879Z" style="fill-rule: evenodd; fill: rgb(255, 255, 255);"/></g><g id="shape-98726710-8c1c-11ec-89cc-eb5165ea74c9"><path d="M369.8115882104289,215.480664565184L375.5437941361191,214.86201498464607L377.73165900882213,209.28187437378074L380.06511374714023,214.7970376824551L385.81129290920217,215.2506677536429L381.5212758679935,219.2779038637459L382.88480964576513,225.13851278562626L377.9000256339991,222.11237617508195L372.9965187584222,225.2807405567357L374.20572064589976,219.38321884936158Z" style="fill-rule: evenodd; fill: rgb(255, 255, 255);"/></g><g id="shape-98728e20-8c1c-11ec-89cc-eb5165ea74c9"><path d="M386.7213633929964,202.47314519397818L392.45356931868685,201.85449561344024L394.6414341913895,196.27435500257496L396.9748889297076,201.7895183112493L402.72106809176955,202.2431483824371L398.431051050561,206.27038449254013L399.79458482833263,212.1309934144205L394.8098008165665,209.10485680387615L389.9062939409898,212.27322118552993L391.1154958284674,206.37569947815578Z" style="fill-rule: evenodd; fill: rgb(255, 255, 255);"/></g><g id="shape-9872b530-8c1c-11ec-89cc-eb5165ea74c9"><path d="M369.8115882104289,188.16487388565184L375.5437941361191,187.5462243051139L377.73165900882213,181.9660836942486L380.06511374714023,187.48124700292297L385.81129290920217,187.93487707411074L381.5212758679935,191.9621131842138L382.88480964576513,197.82272210609412L377.9000256339991,194.79658549554983L372.9965187584222,197.9649498772036L374.20572064589976,192.06742816982944Z" style="fill-rule: evenodd; fill: rgb(255, 255, 255);"/></g><g id="shape-98730350-8c1c-11ec-89cc-eb5165ea74c9"><path d="M419.2401618210107,284.4192164806375L424.97236774670125,283.8005669000995L427.16023261940416,278.2204262892343L429.493687357722,283.7355895979086L435.23986651978396,284.18921966909636L430.9498494785755,288.21645577919935L432.31338325634704,294.0770647010798L427.3285992445809,291.05092809053554L422.42509236900423,294.2192924721892L423.6342942564818,288.3217707648151Z" style="fill-rule: evenodd; fill: rgb(255, 255, 255);"/></g><g id="shape-98732a60-8c1c-11ec-89cc-eb5165ea74c9"><path d="M403.631138575564,270.1109451723112L409.36334450125423,269.4922955917732L411.55120937395714,263.91215498090787L413.88466411227523,269.4273182895823L419.63084327433717,269.88094836077005L415.3408262331286,273.90818447087304L416.70436001090013,279.7687933927535L411.7195759991339,276.7426567822091L406.8160691235572,279.91102116386276L408.02527101103476,274.01349945648866Z" style="fill-rule: evenodd; fill: rgb(255, 255, 255);"/></g><g id="shape-98735170-8c1c-11ec-89cc-eb5165ea74c9"><path d="M468.66873543159284,270.1109451723112L474.40094135728305,269.4922955917732L476.58880622998595,263.91215498090787L478.92226096830404,269.4273182895823L484.668440130366,269.88094836077005L480.3784230891574,273.90818447087304L481.74195686692906,279.7687933927535L476.75717285516293,276.7426567822091L471.85366597958625,279.91102116386276L473.0628678670638,274.01349945648866Z" style="fill-rule: evenodd; fill: rgb(255, 255, 255);"/></g><g id="shape-98737880-8c1c-11ec-89cc-eb5165ea74c9"><path d="M436.14993700357843,270.1109451723112L441.88214292926864,269.4922955917732L444.07000780197154,263.91215498090787L446.40346254028964,269.4273182895823L452.1496417023516,269.88094836077005L447.859624661143,273.90818447087304L449.22315843891465,279.7687933927535L444.2383744271485,276.7426567822091L439.3348675515716,279.91102116386276L440.5440694390493,274.01349945648866Z" style="fill-rule: evenodd; fill: rgb(255, 255, 255);"/></g><g id="shape-98739f90-8c1c-11ec-89cc-eb5165ea74c9"><path d="M485.5785106141602,284.4192164806375L491.31071653985066,283.8005669000995L493.49858141255356,278.2204262892343L495.83203615087143,283.7355895979086L501.57821531293337,284.18921966909636L497.28819827172504,288.21645577919935L498.6517320494967,294.0770647010798L493.6669480377303,291.05092809053554L488.76344116215364,294.2192924721892L489.9726430496313,288.3217707648151Z" style="fill-rule: evenodd; fill: rgb(255, 255, 255);"/></g><g id="shape-9873edb0-8c1c-11ec-89cc-eb5165ea74c9"><path d="M453.059191885371,284.4192164806375L458.7913978110614,283.8005669000995L460.9792626837642,278.2204262892343L463.3127174220822,283.7355895979086L469.0588965841441,284.18921966909636L464.76887954293557,288.21645577919935L466.1324133207072,294.0770647010798L461.1476293089411,291.05092809053554L456.2441224333644,294.2192924721892L457.45332432084194,288.3217707648151Z" style="fill-rule: evenodd; fill: rgb(255, 255, 255);"/></g><g id="shape-987414c0-8c1c-11ec-89cc-eb5165ea74c9"><path d="M403.631138575564,188.16487388565184L409.36334450125423,187.5462243051139L411.55120937395714,181.9660836942486L413.88466411227523,187.48124700292297L419.63084327433717,187.93487707411074L415.3408262331286,191.9621131842138L416.70436001090013,197.82272210609412L411.7195759991339,194.79658549554983L406.8160691235572,197.9649498772036L408.02527101103476,192.06742816982944Z" style="fill-rule: evenodd; fill: rgb(255, 255, 255);"/></g><g id="shape-98743bd0-8c1c-11ec-89cc-eb5165ea74c9"><path d="M419.2401618210107,202.47314519397818L424.97236774670125,201.85449561344024L427.16023261940416,196.27435500257496L429.493687357722,201.7895183112493L435.23986651978396,202.2431483824371L430.9498494785755,206.27038449254013L432.31338325634704,212.1309934144205L427.3285992445809,209.10485680387615L422.42509236900423,212.27322118552993L423.6342942564818,206.37569947815578Z" style="fill-rule: evenodd; fill: rgb(255, 255, 255);"/></g><g id="shape-987462e0-8c1c-11ec-89cc-eb5165ea74c9"><path d="M403.631138575564,215.480664565184L409.36334450125423,214.86201498464607L411.55120937395714,209.28187437378074L413.88466411227523,214.7970376824551L419.63084327433717,215.2506677536429L415.3408262331286,219.2779038637459L416.70436001090013,225.13851278562626L411.7195759991339,222.11237617508195L406.8160691235572,225.2807405567357L408.02527101103476,219.38321884936158Z" style="fill-rule: evenodd; fill: rgb(255, 255, 255);"/></g><g id="shape-987489f0-8c1c-11ec-89cc-eb5165ea74c9"><path d="M419.2401618210107,229.78893587351033L424.97236774670125,229.1702862929724L427.16023261940416,223.5901456821071L429.493687357722,229.10530899078145L435.23986651978396,229.55893906196926L430.9498494785755,233.58617517207225L432.31338325634704,239.44678409395263L427.3285992445809,236.42064748340832L422.42509236900423,239.58901186506205L423.6342942564818,233.6914901576879Z" style="fill-rule: evenodd; fill: rgb(255, 255, 255);"/></g><g id="shape-9874b100-8c1c-11ec-89cc-eb5165ea74c9"><path d="M403.631138575564,242.79645524471613L409.36334450125423,242.17780566417818L411.55120937395714,236.5976650533129L413.88466411227523,242.11282836198723L419.63084327433717,242.566458433175L415.3408262331286,246.59369454327805L416.70436001090013,252.45430346515838L411.7195759991339,249.42816685461406L406.8160691235572,252.59653123626782L408.02527101103476,246.6990095288937Z" style="fill-rule: evenodd; fill: rgb(255, 255, 255);"/></g><g id="shape-9874d810-8c1c-11ec-89cc-eb5165ea74c9"><path d="M419.2401618210107,257.10472655304244L424.97236774670125,256.4860769725045L427.16023261940416,250.90593636163925L429.493687357722,256.42109967031354L435.23986651978396,256.87472974150137L430.9498494785755,260.90196585160436L432.31338325634704,266.7625747734848L427.3285992445809,263.7364381629404L422.42509236900423,266.90480254459413L423.6342942564818,261.0072808372201Z" style="fill-rule: evenodd; fill: rgb(255, 255, 255);"/></g><g id="shape-9874ff20-8c1c-11ec-89cc-eb5165ea74c9"><path d="M502.48828579672784,270.1109451723112L508.22049172241805,269.4922955917732L510.40835659512106,263.91215498090787L512.7418113334392,269.4273182895823L518.487990495501,269.88094836077005L514.1979734542924,273.90818447087304L515.5615072320642,279.7687933927535L510.57672322029805,276.7426567822091L505.67321634472137,279.91102116386276L506.8824182321986,274.01349945648866Z" style="fill-rule: evenodd; fill: rgb(255, 255, 255);"/></g><g id="shape-98752630-8c1c-11ec-89cc-eb5165ea74c9"><path d="M436.14993700357843,242.79645524471613L441.88214292926864,242.17780566417818L444.07000780197154,236.5976650533129L446.40346254028964,242.11282836198723L452.1496417023516,242.566458433175L447.859624661143,246.59369454327805L449.22315843891465,252.45430346515838L444.2383744271485,249.42816685461406L439.3348675515716,252.59653123626782L440.5440694390493,246.6990095288937Z" style="fill-rule: evenodd; fill: rgb(255, 255, 255);"/></g><g id="shape-98754d40-8c1c-11ec-89cc-eb5165ea74c9"><path d="M436.14993700357843,188.16487388565184L441.88214292926864,187.5462243051139L444.07000780197154,181.9660836942486L446.40346254028964,187.48124700292297L452.1496417023516,187.93487707411074L447.859624661143,191.9621131842138L449.22315843891465,197.82272210609412L444.2383744271485,194.79658549554983L439.3348675515716,197.9649498772036L440.5440694390493,192.06742816982944Z" style="fill-rule: evenodd; fill: rgb(255, 255, 255);"/></g><g id="shape-98759b60-8c1c-11ec-89cc-eb5165ea74c9"><path d="M436.14993700357843,215.480664565184L441.88214292926864,214.86201498464607L444.07000780197154,209.28187437378074L446.40346254028964,214.7970376824551L452.1496417023516,215.2506677536429L447.859624661143,219.2779038637459L449.22315843891465,225.13851278562626L444.2383744271485,222.11237617508195L439.3348675515716,225.2807405567357L440.5440694390493,219.38321884936158Z" style="fill-rule: evenodd; fill: rgb(255, 255, 255);"/></g><g id="shape-9875c270-8c1c-11ec-89cc-eb5165ea74c9"><path d="M485.5785106141602,257.10472655304244L491.31071653985066,256.4860769725045L493.49858141255356,250.90593636163925L495.83203615087143,256.42109967031354L501.57821531293337,256.87472974150137L497.28819827172504,260.90196585160436L498.6517320494967,266.7625747734848L493.6669480377303,263.7364381629404L488.76344116215364,266.90480254459413L489.9726430496313,261.0072808372201Z" style="fill-rule: evenodd; fill: rgb(255, 255, 255);"/></g><g id="shape-9875e980-8c1c-11ec-89cc-eb5165ea74c9"><path d="M453.059191885371,257.10472655304244L458.7913978110614,256.4860769725045L460.9792626837642,250.90593636163925L463.3127174220822,256.42109967031354L469.0588965841441,256.87472974150137L464.76887954293557,260.90196585160436L466.1324133207072,266.7625747734848L461.1476293089411,263.7364381629404L456.2441224333644,266.90480254459413L457.45332432084194,261.0072808372201Z" style="fill-rule: evenodd; fill: rgb(255, 255, 255);"/></g><g id="shape-98761090-8c1c-11ec-89cc-eb5165ea74c9"><path d="M453.059191885371,202.47314519397818L458.7913978110614,201.85449561344024L460.9792626837642,196.27435500257496L463.3127174220822,201.7895183112493L469.0588965841441,202.2431483824371L464.76887954293557,206.27038449254013L466.1324133207072,212.1309934144205L461.1476293089411,209.10485680387615L456.2441224333644,212.27322118552993L457.45332432084194,206.37569947815578Z" style="fill-rule: evenodd; fill: rgb(255, 255, 255);"/></g><g id="shape-98765eb0-8c1c-11ec-89cc-eb5165ea74c9"><path d="M453.059191885371,229.78893587351033L458.7913978110614,229.1702862929724L460.9792626837642,223.5901456821071L463.3127174220822,229.10530899078145L469.0588965841441,229.55893906196926L464.76887954293557,233.58617517207225L466.1324133207072,239.44678409395263L461.1476293089411,236.42064748340832L456.2441224333644,239.58901186506205L457.45332432084194,233.6914901576879Z" style="fill-rule: evenodd; fill: rgb(255, 255, 255);"/></g><g id="shape-987685c0-8c1c-11ec-89cc-eb5165ea74c9"><path d="M502.48828579672784,242.79645524471613L508.22049172241805,242.17780566417818L510.40835659512106,236.5976650533129L512.7418113334392,242.11282836198723L518.487990495501,242.566458433175L514.1979734542924,246.59369454327805L515.5615072320642,252.45430346515838L510.57672322029805,249.42816685461406L505.67321634472137,252.59653123626782L506.8824182321986,246.6990095288937Z" style="fill-rule: evenodd; fill: rgb(255, 255, 255);"/></g><g id="shape-9876acd0-8c1c-11ec-89cc-eb5165ea74c9"><path d="M468.66873543159284,242.79645524471613L474.40094135728305,242.17780566417818L476.58880622998595,236.5976650533129L478.92226096830404,242.11282836198723L484.668440130366,242.566458433175L480.3784230891574,246.59369454327805L481.74195686692906,252.45430346515838L476.75717285516293,249.42816685461406L471.85366597958625,252.59653123626782L473.0628678670638,246.6990095288937Z" style="fill-rule: evenodd; fill: rgb(255, 255, 255);"/></g><g id="shape-9876d3e0-8c1c-11ec-89cc-eb5165ea74c9"><path d="M468.66873543159284,188.16487388565184L474.40094135728305,187.5462243051139L476.58880622998595,181.9660836942486L478.92226096830404,187.48124700292297L484.668440130366,187.93487707411074L480.3784230891574,191.9621131842138L481.74195686692906,197.82272210609412L476.75717285516293,194.79658549554983L471.85366597958625,197.9649498772036L473.0628678670638,192.06742816982944Z" style="fill-rule: evenodd; fill: rgb(255, 255, 255);"/></g><g id="shape-9876faf0-8c1c-11ec-89cc-eb5165ea74c9"><path d="M468.66873543159284,215.480664565184L474.40094135728305,214.86201498464607L476.58880622998595,209.28187437378074L478.92226096830404,214.7970376824551L484.668440130366,215.2506677536429L480.3784230891574,219.2779038637459L481.74195686692906,225.13851278562626L476.75717285516293,222.11237617508195L471.85366597958625,225.2807405567357L473.0628678670638,219.38321884936158Z" style="fill-rule: evenodd; fill: rgb(255, 255, 255);"/></g><g id="shape-98772200-8c1c-11ec-89cc-eb5165ea74c9"><path d="M502.48828579672784,188.16487388565184L508.22049172241805,187.5462243051139L510.40835659512106,181.9660836942486L512.7418113334392,187.48124700292297L518.487990495501,187.93487707411074L514.1979734542924,191.9621131842138L515.5615072320642,197.82272210609412L510.57672322029805,194.79658549554983L505.67321634472137,197.9649498772036L506.8824182321986,192.06742816982944Z" style="fill-rule: evenodd; fill: rgb(255, 255, 255);"/></g><g id="shape-98774910-8c1c-11ec-89cc-eb5165ea74c9"><path d="M485.5785106141602,202.47314519397818L491.31071653985066,201.85449561344024L493.49858141255356,196.27435500257496L495.83203615087143,201.7895183112493L501.57821531293337,202.2431483824371L497.28819827172504,206.27038449254013L498.6517320494967,212.1309934144205L493.6669480377303,209.10485680387615L488.76344116215364,212.27322118552993L489.9726430496313,206.37569947815578Z" style="fill-rule: evenodd; fill: rgb(255, 255, 255);"/></g><g id="shape-98777020-8c1c-11ec-89cc-eb5165ea74c9"><path d="M502.48828579672784,215.480664565184L508.22049172241805,214.86201498464607L510.40835659512106,209.28187437378074L512.7418113334392,214.7970376824551L518.487990495501,215.2506677536429L514.1979734542924,219.2779038637459L515.5615072320642,225.13851278562626L510.57672322029805,222.11237617508195L505.67321634472137,225.2807405567357L506.8824182321986,219.38321884936158Z" style="fill-rule: evenodd; fill: rgb(255, 255, 255);"/></g><g id="shape-98779730-8c1c-11ec-89cc-eb5165ea74c9"><path d="M485.5785106141602,229.78893587351033L491.31071653985066,229.1702862929724L493.49858141255356,223.5901456821071L495.83203615087143,229.10530899078145L501.57821531293337,229.55893906196926L497.28819827172504,233.58617517207225L498.6517320494967,239.44678409395263L493.6669480377303,236.42064748340832L488.76344116215364,239.58901186506205L489.9726430496313,233.6914901576879Z" style="fill-rule: evenodd; fill: rgb(255, 255, 255);"/></g></g><g id="shape-98779731-8c1c-11ec-89cc-eb5165ea74c9"><g id="shape-9877be40-8c1c-11ec-89cc-eb5165ea74c9"><path d="M328.44891505591386,436.39459454601405L824.0744256569676,178.05225231449614L822.9167564329305,436.9799329177183Z" style="fill: rgb(255, 255, 255);"/></g></g><g id="shape-9877be41-8c1c-11ec-89cc-eb5165ea74c9"><g id="shape-9877e550-8c1c-11ec-89cc-eb5165ea74c9"><path d="M615.9272291751349,436.06940656173396L615.5115999086665,341.58408660123223L821.8758947328463,341.7907240539632L822.1681346705593,435.86240489846057Z" style="fill: rgb(0, 36, 125);"/></g><g id="shape-98780c60-8c1c-11ec-89cc-eb5165ea74c9"><path d="M822.0313736118906,177.473677852865L654.2864038008204,266.31243365432607L821.7322006663528,266.31243365432607Z" style="fill: rgb(0, 36, 125);"/></g><g id="shape-98783370-8c1c-11ec-89cc-eb5165ea74c9"><path d="M329.0333819052805,436.09542160047647L513.1418110853272,340.24301135406097L538.8589776341383,340.53525129177393L538.2745107662321,436.3876615381892Z" style="fill: rgb(0, 36, 125);"/></g></g><g id="shape-98783371-8c1c-11ec-89cc-eb5165ea74c9"><g id="shape-98785a80-8c1c-11ec-89cc-eb5165ea74c9"><path d="M823.1240052390717,410.0543678193223L822.5896173207443,435.4684591667842L779.4996078997513,438.1486585332212L610.3758410353337,349.4334741657864L612.3049862332775,337.05655933369667L687.3167489431464,339.1022519052063Z" style="fill: rgb(255, 255, 255);"/></g><g id="shape-98788190-8c1c-11ec-89cc-eb5165ea74c9"><path d="M823.4882157814654,176.30477013209094L649.9028697727244,268.65035315602927L703.6746541013522,269.81928689184195L822.6141104797207,206.6963968872546Z" style="fill: rgb(255, 255, 255);"/></g><g id="shape-98788191-8c1c-11ec-89cc-eb5165ea74c9"><path d="M328.44891505591386,435.22391780260557L521.7276453926604,335.91150740344955L541.5406988988811,336.6671662338003L541.6115898794541,355.52416706623734L389.9048914530812,435.80657662531934Z" style="fill: rgb(255, 255, 255);"/></g><g id="shape-9878a8a0-8c1c-11ec-89cc-eb5165ea74c9"><path d="M328.1566751182012,435.52309074814326L518.7948790225929,337.2772969374261L538.8589776526779,337.3481879179992L538.2745107847715,347.5557086693591L369.93119508262623,435.8117276029904Z" style="fill: rgb(207, 20, 43);"/></g><g id="shape-9878cfb0-8c1c-11ec-89cc-eb5165ea74c9"><path d="M638.8074557490859,338.7861691844859L676.213179204862,339.95510292029877L822.3266443016171,418.2733770543287L821.7421774337104,435.223475546947Z" style="fill: rgb(207, 20, 43);"/></g></g><g id="shape-9878cfb1-8c1c-11ec-89cc-eb5165ea74c9"><g id="shape-9878f6c0-8c1c-11ec-89cc-eb5165ea74c9"><path d="M821.9793435344056,327.4045897346808L537.2577520180823,327.1123628044874L631.6676283662309,278.7569095420299L822.0196668444567,279.1347389572054Z" style="fill: rgb(207, 20, 43);"/></g><g id="shape-98791dd0-8c1c-11ec-89cc-eb5165ea74c9"><path d="M601.1636946888163,435.2109102832344L601.7481745642424,295.3410544846586L552.5017062248571,320.24004806502074L552.6019941992091,435.75072233713934Z" style="fill: rgb(207, 20, 43);"/></g></g><g id="shape-987944e0-8c1c-11ec-89cc-eb5165ea74c9"><g id="shape-987944e1-8c1c-11ec-89cc-eb5165ea74c9"><rect x="328.66666666666674" y="177" transform="matrix(1,0,0,1,0,0)" width="493" height="259" style="fill: none; stroke-width: 1; stroke: rgb(0, 0, 0);"/></g></g></g></g></g></g></svg>