<?xml version="1.0" encoding="UTF-8"?>
<svg width="16px" height="16px" viewBox="0 0 16 16" version="1.1" xmlns="http://www.w3.org/2000/svg" xmlns:xlink="http://www.w3.org/1999/xlink">
    <title>dialog_hotspot</title>
    <defs>
        <rect id="path-1" x="1" y="2" width="14" height="12"></rect>
        <mask id="mask-2" maskContentUnits="userSpaceOnUse" maskUnits="objectBoundingBox" x="0" y="0" width="14" height="12" fill="white">
            <use xlink:href="#path-1"></use>
        </mask>
    </defs>
    <g id="dialog_hotspot" stroke="none" stroke-width="1" fill="none" fill-rule="evenodd">
        <g id="Group-2" transform="translate(4.000000, 5.000000)" fill="#A5EFAC">
            <path d="M8,5.124222 C8,5.60790083 6.88071187,6 5.5,6 C4.11928813,6 3,5.60790083 3,5.124222 C3,4.7442076 4.6898767,3.94035351 4.6898767,4.29951881 C4.6898767,4.87724275 4.75608005,4.95105189 4.79310885,4.96448949 C4.97255043,5.02960811 5.11673897,5.04263183 5.29042447,5.04523658 L5.55040209,5.04523658 C5.71998654,5.04263183 5.90693531,5.02960811 6.06251681,4.96448949 C6.09152859,4.95234661 6.17033989,4.96448949 6.17033989,4.29951881 C6.17033989,3.91754814 8,4.73082598 8,5.124222 Z M5.50000506,6.21724894e-15 C6.53553617,6.21724894e-15 7.375,0.993303075 7.375,2.21860451 C7.375,2.92882317 6.69063842,3.18650101 6.2518648,3.59257766 C6.02390293,3.80355203 6.06732705,4.34475279 6.0733635,4.57237639 C6.07853759,4.76748234 6.07927674,4.79535462 5.67253182,4.79933637 L5.19412334,4.79933637 C4.78727283,4.79535462 4.78727283,4.76748234 4.78727283,4.57237639 C4.78727283,4.34475279 4.82929425,3.74855338 4.57274602,3.59257766 C3.96752142,3.22461432 3.625,3.07913591 3.625,2.21860451 C3.625,0.993303075 4.46447395,6.21724894e-15 5.50000506,6.21724894e-15 Z M5.1875,2.7 C4.66973305,2.7 4.25,2.53431458 4.25,2.7 C4.25,2.86568542 4.66973305,3 5.1875,3 C5.70526695,3 6.125,2.86568542 6.125,2.7 C6.125,2.53431458 5.70526695,2.7 5.1875,2.7 Z" id="Combined-Shape"></path>
            <path d="M5,5.124222 C5,5.60790083 3.88071187,6 2.5,6 C1.11928813,6 0,5.60790083 0,5.124222 C0,4.7442076 1.6898767,3.94035351 1.6898767,4.29951881 C1.6898767,4.87724275 1.75608005,4.95105189 1.79310885,4.96448949 C1.97255043,5.02960811 2.11673897,5.04263183 2.29042447,5.04523658 L2.55040209,5.04523658 C2.71998654,5.04263183 2.90693531,5.02960811 3.06251681,4.96448949 C3.09152859,4.95234661 3.17033989,4.96448949 3.17033989,4.29951881 C3.17033989,3.91754814 5,4.73082598 5,5.124222 Z M2.50000506,6.21724894e-15 C3.53553617,6.21724894e-15 4.375,0.993303075 4.375,2.21860451 C4.375,2.92882317 3.69063842,3.18650101 3.2518648,3.59257766 C3.02390293,3.80355203 3.06732705,4.34475279 3.0733635,4.57237639 C3.07853759,4.76748234 3.07927674,4.79535462 2.67253182,4.79933637 L2.19412334,4.79933637 C1.78727283,4.79535462 1.78727283,4.76748234 1.78727283,4.57237639 C1.78727283,4.34475279 1.82929425,3.74855338 1.57274602,3.59257766 C0.967521416,3.22461432 0.625,3.07913591 0.625,2.21860451 C0.625,0.993303075 1.46447395,6.21724894e-15 2.50000506,6.21724894e-15 Z M2.1875,2.7 C1.66973305,2.7 1.25,2.53431458 1.25,2.7 C1.25,2.86568542 1.66973305,3 2.1875,3 C2.70526695,3 3.125,2.86568542 3.125,2.7 C3.125,2.53431458 2.70526695,2.7 2.1875,2.7 Z" id="Combined-Shape-Copy" transform="translate(2.500000, 3.000000) scale(-1, 1) translate(-2.500000, -3.000000) "></path>
        </g>
        <use id="Rectangle" stroke="#A5EFAC" mask="url(#mask-2)" stroke-width="2" stroke-dasharray="1" xlink:href="#path-1"></use>
    </g>
</svg>