<?xml version="1.0" encoding="UTF-8"?>
<svg width="16px" height="16px" viewBox="0 0 16 16" version="1.1" xmlns="http://www.w3.org/2000/svg" xmlns:xlink="http://www.w3.org/1999/xlink">
    <title>hotspot</title>
    <g id="hotspot" stroke="none" stroke-width="1" fill="none" fill-rule="evenodd">
        <path d="M7.49995525,1.5 L8.50028236,1.5 L8.50142771,3.52759132 C9.36890868,3.62357572 10.1619342,3.96642892 10.8089168,4.48409231 L10.8089168,4.48409231 L12.2426521,3.05026399 L12.949736,3.75734786 L11.5159077,5.19108325 C12.0338101,5.83836443 12.3767407,6.63182362 12.4725415,7.49977377 L12.4725415,7.49977377 L14.5,7.49995525 L14.5,8.50028236 L12.4724087,8.50142771 C12.3764243,9.36890868 12.0335711,10.1619342 11.5159077,10.8089168 L11.5159077,10.8089168 L12.949736,12.2426521 L12.2426521,12.949736 L10.8089168,11.5159077 C10.1619342,12.0335711 9.36890868,12.3764243 8.50142771,12.4724087 L8.50142771,12.4724087 L8.50028236,14.5 L7.49995525,14.5 L7.49977377,12.4725415 C6.63182362,12.3767407 5.83836443,12.0338101 5.19108325,11.5159077 L5.19108325,11.5159077 L3.75734786,12.949736 L3.05026399,12.2426521 L4.48409231,10.8089168 C3.96642892,10.1619342 3.62357572,9.36890868 3.52759132,8.50142771 L3.52759132,8.50142771 L1.5,8.50028236 L1.5,7.49995525 L3.52745849,7.49977377 C3.62325928,6.63182362 3.9661899,5.83836443 4.48409232,5.19108325 L4.48409232,5.19108325 L3.05026399,3.75734786 L3.75734786,3.05026399 L5.19108325,4.48409232 C5.83836443,3.9661899 6.63182362,3.62325928 7.49977377,3.52745849 L7.49977377,3.52745849 L7.49995525,1.5 Z" stroke="#A5EFAC"></path>
    </g>
</svg>